<mxfile host="app.diagrams.net" agent="Mozilla/5.0 (Windows NT 10.0; Win64; x64) AppleWebKit/537.36 (KHTML, like Gecko) Chrome/137.0.0.0 Safari/537.36" version="27.1.6">
  <diagram name="Page-1" id="L-kXCnLtIF-Kari1PjH5">
    <mxGraphModel dx="1245" dy="464" grid="1" gridSize="10" guides="1" tooltips="1" connect="1" arrows="0" fold="1" page="0" pageScale="1" pageWidth="850" pageHeight="1100" math="0" shadow="0">
      <root>
        <mxCell id="0" />
        <mxCell id="1" parent="0" />
        <mxCell id="RKrF92qqAt3XCPTzt_NF-28" value="" style="edgeStyle=orthogonalEdgeStyle;rounded=0;orthogonalLoop=1;jettySize=auto;html=1;" edge="1" parent="1" source="RKrF92qqAt3XCPTzt_NF-1" target="RKrF92qqAt3XCPTzt_NF-3">
          <mxGeometry relative="1" as="geometry" />
        </mxCell>
        <mxCell id="RKrF92qqAt3XCPTzt_NF-1" value="Developer" style="rounded=0;whiteSpace=wrap;html=1;" vertex="1" parent="1">
          <mxGeometry x="94" y="140" width="120" height="60" as="geometry" />
        </mxCell>
        <mxCell id="RKrF92qqAt3XCPTzt_NF-2" value="" style="endArrow=classic;html=1;rounded=0;" edge="1" parent="1">
          <mxGeometry width="50" height="50" relative="1" as="geometry">
            <mxPoint x="240" y="170" as="sourcePoint" />
            <mxPoint x="310" y="170" as="targetPoint" />
            <Array as="points">
              <mxPoint x="220" y="170" />
            </Array>
          </mxGeometry>
        </mxCell>
        <mxCell id="RKrF92qqAt3XCPTzt_NF-3" value="Git-Hub&lt;div&gt;quote-api-repo&lt;/div&gt;" style="rounded=0;whiteSpace=wrap;html=1;" vertex="1" parent="1">
          <mxGeometry x="308" y="140" width="120" height="60" as="geometry" />
        </mxCell>
        <mxCell id="RKrF92qqAt3XCPTzt_NF-4" value="" style="endArrow=classic;html=1;rounded=0;" edge="1" parent="1">
          <mxGeometry width="50" height="50" relative="1" as="geometry">
            <mxPoint x="428" y="169.5" as="sourcePoint" />
            <mxPoint x="498" y="169.5" as="targetPoint" />
          </mxGeometry>
        </mxCell>
        <mxCell id="RKrF92qqAt3XCPTzt_NF-5" value="Cloud Build Deploy&amp;nbsp;&lt;div&gt;&lt;span style=&quot;background-color: rgb(26, 28, 30); color: rgb(226, 226, 229); font-family: &amp;quot;DM Mono&amp;quot;, monospace; font-size: 13px; text-align: left;&quot;&gt;&amp;nbsp;&lt;/span&gt;&lt;span style=&quot;background-color: rgb(26, 28, 30); color: rgb(226, 226, 229); font-family: &amp;quot;DM Mono&amp;quot;, monospace; font-size: 13px; text-align: left;&quot;&gt;cloudbuild.yaml&lt;/span&gt;&lt;/div&gt;" style="rounded=0;whiteSpace=wrap;html=1;" vertex="1" parent="1">
          <mxGeometry x="497" y="140" width="160" height="60" as="geometry" />
        </mxCell>
        <mxCell id="RKrF92qqAt3XCPTzt_NF-6" value="Artifact Registry" style="rounded=0;whiteSpace=wrap;html=1;" vertex="1" parent="1">
          <mxGeometry x="330" y="280" width="120" height="60" as="geometry" />
        </mxCell>
        <mxCell id="RKrF92qqAt3XCPTzt_NF-7" value="GKE Cluster" style="rounded=0;whiteSpace=wrap;html=1;" vertex="1" parent="1">
          <mxGeometry x="440" y="370" width="330" height="170" as="geometry" />
        </mxCell>
        <mxCell id="RKrF92qqAt3XCPTzt_NF-8" value="GCS Bucket&amp;nbsp;" style="rounded=0;whiteSpace=wrap;html=1;" vertex="1" parent="1">
          <mxGeometry x="687" y="280" width="120" height="60" as="geometry" />
        </mxCell>
        <mxCell id="RKrF92qqAt3XCPTzt_NF-9" value="" style="endArrow=classic;html=1;rounded=0;entryX=0.944;entryY=-0.061;entryDx=0;entryDy=0;entryPerimeter=0;exitX=0.322;exitY=1.017;exitDx=0;exitDy=0;exitPerimeter=0;" edge="1" parent="1" source="RKrF92qqAt3XCPTzt_NF-5" target="RKrF92qqAt3XCPTzt_NF-6">
          <mxGeometry width="50" height="50" relative="1" as="geometry">
            <mxPoint x="490" y="250" as="sourcePoint" />
            <mxPoint x="540" y="200" as="targetPoint" />
          </mxGeometry>
        </mxCell>
        <mxCell id="RKrF92qqAt3XCPTzt_NF-25" value="&lt;span style=&quot;color: rgb(226, 226, 229); font-family: &amp;quot;DM Mono&amp;quot;, monospace; font-size: 13px; text-align: left; text-wrap-mode: wrap; background-color: rgb(26, 28, 30);&quot;&gt;Pushes Docker Image)&lt;/span&gt;" style="edgeLabel;html=1;align=center;verticalAlign=middle;resizable=0;points=[];" vertex="1" connectable="0" parent="RKrF92qqAt3XCPTzt_NF-9">
          <mxGeometry x="-0.1202" y="-2" relative="1" as="geometry">
            <mxPoint as="offset" />
          </mxGeometry>
        </mxCell>
        <mxCell id="RKrF92qqAt3XCPTzt_NF-10" value="" style="endArrow=classic;html=1;rounded=0;exitX=0.56;exitY=0.983;exitDx=0;exitDy=0;exitPerimeter=0;" edge="1" parent="1" source="RKrF92qqAt3XCPTzt_NF-5">
          <mxGeometry width="50" height="50" relative="1" as="geometry">
            <mxPoint x="580" y="200" as="sourcePoint" />
            <mxPoint x="588" y="380" as="targetPoint" />
          </mxGeometry>
        </mxCell>
        <mxCell id="RKrF92qqAt3XCPTzt_NF-26" value="&lt;span style=&quot;color: rgb(226, 226, 229); font-family: &amp;quot;DM Mono&amp;quot;, monospace; font-size: 13px; text-align: left; text-wrap-mode: wrap; background-color: rgb(26, 28, 30);&quot;&gt;Deploys via Terraform/Helm&lt;/span&gt;" style="edgeLabel;html=1;align=center;verticalAlign=middle;resizable=0;points=[];" vertex="1" connectable="0" parent="RKrF92qqAt3XCPTzt_NF-10">
          <mxGeometry x="-0.1064" y="1" relative="1" as="geometry">
            <mxPoint as="offset" />
          </mxGeometry>
        </mxCell>
        <mxCell id="RKrF92qqAt3XCPTzt_NF-12" value="" style="endArrow=classic;html=1;rounded=0;entryX=0.422;entryY=-0.028;entryDx=0;entryDy=0;entryPerimeter=0;exitX=0.75;exitY=1;exitDx=0;exitDy=0;" edge="1" parent="1" source="RKrF92qqAt3XCPTzt_NF-5" target="RKrF92qqAt3XCPTzt_NF-8">
          <mxGeometry width="50" height="50" relative="1" as="geometry">
            <mxPoint x="580" y="260" as="sourcePoint" />
            <mxPoint x="630" y="210" as="targetPoint" />
            <Array as="points" />
          </mxGeometry>
        </mxCell>
        <mxCell id="RKrF92qqAt3XCPTzt_NF-27" value="&lt;span style=&quot;color: rgb(226, 226, 229); font-family: &amp;quot;DM Mono&amp;quot;, monospace; font-size: 13px; text-align: left; text-wrap-mode: wrap; background-color: rgb(26, 28, 30);&quot;&gt;Reads/Writes TF State via Terraform&lt;/span&gt;" style="edgeLabel;html=1;align=center;verticalAlign=middle;resizable=0;points=[];" vertex="1" connectable="0" parent="RKrF92qqAt3XCPTzt_NF-12">
          <mxGeometry x="0.1076" y="-1" relative="1" as="geometry">
            <mxPoint x="8" as="offset" />
          </mxGeometry>
        </mxCell>
        <mxCell id="RKrF92qqAt3XCPTzt_NF-29" value="&lt;span style=&quot;color: rgb(226, 226, 229); font-family: &amp;quot;Google Sans Text&amp;quot;, &amp;quot;Helvetica Neue&amp;quot;, sans-serif; font-size: 14px; text-align: left; background-color: rgb(30, 30, 30);&quot;&gt;Staging Namespace&lt;/span&gt;" style="whiteSpace=wrap;html=1;aspect=fixed;" vertex="1" parent="1">
          <mxGeometry x="470" y="410" width="80" height="80" as="geometry" />
        </mxCell>
        <mxCell id="RKrF92qqAt3XCPTzt_NF-30" value="&#xa;&lt;span style=&quot;color: rgb(226, 226, 229); font-family: &amp;quot;Google Sans Text&amp;quot;, &amp;quot;Helvetica Neue&amp;quot;, sans-serif; font-size: 14px; font-style: normal; font-variant-ligatures: normal; font-variant-caps: normal; font-weight: 400; letter-spacing: normal; orphans: 2; text-align: left; text-indent: 0px; text-transform: none; widows: 2; word-spacing: 0px; -webkit-text-stroke-width: 0px; white-space: normal; background-color: rgb(30, 30, 30); text-decoration-thickness: initial; text-decoration-style: initial; text-decoration-color: initial; display: inline !important; float: none;&quot;&gt;Prod Namespace (Pods, Service, HPA)&lt;/span&gt;&#xa;&#xa;" style="whiteSpace=wrap;html=1;aspect=fixed;" vertex="1" parent="1">
          <mxGeometry x="657" y="400" width="90" height="90" as="geometry" />
        </mxCell>
        <mxCell id="RKrF92qqAt3XCPTzt_NF-31" value="Cloud Build&amp;nbsp;&lt;span style=&quot;color: rgb(226, 226, 229); font-family: &amp;quot;DM Mono&amp;quot;, monospace; font-size: 13px; text-align: left; background-color: rgb(26, 28, 30);&quot;&gt;&amp;nbsp;&lt;/span&gt;&lt;div&gt;&lt;span style=&quot;color: rgb(226, 226, 229); font-family: &amp;quot;DM Mono&amp;quot;, monospace; font-size: 13px; text-align: left; background-color: rgb(26, 28, 30);&quot;&gt;cloudbuild.pr.yaml&lt;/span&gt;&lt;/div&gt;" style="rounded=0;whiteSpace=wrap;html=1;" vertex="1" parent="1">
          <mxGeometry x="497" y="50" width="163" height="60" as="geometry" />
        </mxCell>
        <mxCell id="RKrF92qqAt3XCPTzt_NF-32" value="" style="endArrow=classic;html=1;rounded=0;exitX=0.922;exitY=-0.006;exitDx=0;exitDy=0;exitPerimeter=0;" edge="1" parent="1" source="RKrF92qqAt3XCPTzt_NF-3">
          <mxGeometry width="50" height="50" relative="1" as="geometry">
            <mxPoint x="430" y="130" as="sourcePoint" />
            <mxPoint x="490" y="90" as="targetPoint" />
          </mxGeometry>
        </mxCell>
        <mxCell id="RKrF92qqAt3XCPTzt_NF-33" value="Terraform" style="rounded=0;whiteSpace=wrap;html=1;" vertex="1" parent="1">
          <mxGeometry x="700" y="140" width="120" height="60" as="geometry" />
        </mxCell>
        <mxCell id="RKrF92qqAt3XCPTzt_NF-34" value="" style="endArrow=classic;html=1;rounded=0;exitX=0.985;exitY=0.65;exitDx=0;exitDy=0;exitPerimeter=0;entryX=0.028;entryY=0.639;entryDx=0;entryDy=0;entryPerimeter=0;" edge="1" parent="1" source="RKrF92qqAt3XCPTzt_NF-5" target="RKrF92qqAt3XCPTzt_NF-33">
          <mxGeometry width="50" height="50" relative="1" as="geometry">
            <mxPoint x="460" y="330" as="sourcePoint" />
            <mxPoint x="680" y="180" as="targetPoint" />
          </mxGeometry>
        </mxCell>
        <mxCell id="RKrF92qqAt3XCPTzt_NF-35" value="End User" style="whiteSpace=wrap;html=1;aspect=fixed;" vertex="1" parent="1">
          <mxGeometry x="850" y="431" width="80" height="80" as="geometry" />
        </mxCell>
        <mxCell id="RKrF92qqAt3XCPTzt_NF-36" value="" style="endArrow=classic;html=1;rounded=0;entryX=0;entryY=0.388;entryDx=0;entryDy=0;entryPerimeter=0;exitX=1;exitY=0.563;exitDx=0;exitDy=0;exitPerimeter=0;" edge="1" parent="1" source="RKrF92qqAt3XCPTzt_NF-7">
          <mxGeometry width="50" height="50" relative="1" as="geometry">
            <mxPoint x="780" y="465" as="sourcePoint" />
            <mxPoint x="849" y="465.03999999999996" as="targetPoint" />
          </mxGeometry>
        </mxCell>
        <mxCell id="RKrF92qqAt3XCPTzt_NF-38" value="" style="endArrow=classic;html=1;rounded=0;exitX=0.5;exitY=1;exitDx=0;exitDy=0;" edge="1" parent="1">
          <mxGeometry width="50" height="50" relative="1" as="geometry">
            <mxPoint x="773" y="208" as="sourcePoint" />
            <mxPoint x="773" y="278" as="targetPoint" />
          </mxGeometry>
        </mxCell>
        <mxCell id="RKrF92qqAt3XCPTzt_NF-39" value="Backend tfstate" style="edgeLabel;html=1;align=center;verticalAlign=middle;resizable=0;points=[];" vertex="1" connectable="0" parent="RKrF92qqAt3XCPTzt_NF-38">
          <mxGeometry x="0.0286" y="4" relative="1" as="geometry">
            <mxPoint x="2" as="offset" />
          </mxGeometry>
        </mxCell>
        <mxCell id="RKrF92qqAt3XCPTzt_NF-41" value="" style="endArrow=classic;html=1;rounded=0;entryX=1;entryY=0.5;entryDx=0;entryDy=0;exitX=1;exitY=0.25;exitDx=0;exitDy=0;" edge="1" parent="1" source="RKrF92qqAt3XCPTzt_NF-30" target="RKrF92qqAt3XCPTzt_NF-33">
          <mxGeometry width="50" height="50" relative="1" as="geometry">
            <mxPoint x="880" y="380" as="sourcePoint" />
            <mxPoint x="840" y="110" as="targetPoint" />
            <Array as="points">
              <mxPoint x="880" y="420" />
              <mxPoint x="880" y="170" />
            </Array>
          </mxGeometry>
        </mxCell>
        <mxCell id="RKrF92qqAt3XCPTzt_NF-42" value="Terraform apply" style="edgeLabel;html=1;align=center;verticalAlign=middle;resizable=0;points=[];" vertex="1" connectable="0" parent="RKrF92qqAt3XCPTzt_NF-41">
          <mxGeometry x="0.0806" y="1" relative="1" as="geometry">
            <mxPoint as="offset" />
          </mxGeometry>
        </mxCell>
        <mxCell id="RKrF92qqAt3XCPTzt_NF-43" value="" style="endArrow=classic;html=1;rounded=0;exitX=0.622;exitY=1.028;exitDx=0;exitDy=0;exitPerimeter=0;entryX=0;entryY=0;entryDx=0;entryDy=0;" edge="1" parent="1" source="RKrF92qqAt3XCPTzt_NF-6" target="RKrF92qqAt3XCPTzt_NF-7">
          <mxGeometry width="50" height="50" relative="1" as="geometry">
            <mxPoint x="320" y="450" as="sourcePoint" />
            <mxPoint x="370" y="400" as="targetPoint" />
          </mxGeometry>
        </mxCell>
        <mxCell id="RKrF92qqAt3XCPTzt_NF-44" value="Pod pulls image" style="edgeLabel;html=1;align=center;verticalAlign=middle;resizable=0;points=[];" vertex="1" connectable="0" parent="RKrF92qqAt3XCPTzt_NF-43">
          <mxGeometry x="-0.1169" y="1" relative="1" as="geometry">
            <mxPoint as="offset" />
          </mxGeometry>
        </mxCell>
        <mxCell id="RKrF92qqAt3XCPTzt_NF-45" value="Cloud Run" style="rounded=0;whiteSpace=wrap;html=1;" vertex="1" parent="1">
          <mxGeometry x="688" y="50" width="132" height="60" as="geometry" />
        </mxCell>
        <mxCell id="RKrF92qqAt3XCPTzt_NF-46" value="" style="endArrow=none;dashed=1;html=1;dashPattern=1 3;strokeWidth=2;rounded=0;entryX=0.25;entryY=1;entryDx=0;entryDy=0;" edge="1" parent="1" target="RKrF92qqAt3XCPTzt_NF-45">
          <mxGeometry width="50" height="50" relative="1" as="geometry">
            <mxPoint x="660" y="170" as="sourcePoint" />
            <mxPoint x="710" y="120" as="targetPoint" />
          </mxGeometry>
        </mxCell>
      </root>
    </mxGraphModel>
  </diagram>
</mxfile>
